<svg id="Layer_1" data-name="Layer 1" xmlns="http://www.w3.org/2000/svg" viewBox="0 0 237.6 91.48"><defs><style>.cls-1{fill:#fff;}</style></defs><text x="-75.83" y="-88.08"/><text x="-75.83" y="-88.08"/><path class="cls-1" d="M142.59,163.11l10.46.09s5.14-.74,6.77-5.29a18.17,18.17,0,0,0,1.25-7.62l-1.17-7.09-.57-2.74-.31-3.9v-1.95a6.91,6.91,0,0,1,2.18-3.54,23.53,23.53,0,0,1,3.76-2.56c1.21-.52,1-.57,1-.57l.1-4.7s-7-3.43-7-6.73a52.75,52.75,0,0,1,.23-5.34l.92-4.76s1.28-5.85.91-8.48a23.59,23.59,0,0,0-.8-3.89,9.24,9.24,0,0,0-1.93-3.33,21.66,21.66,0,0,0-3-2.14s-.6-.57-6.3-.48-6.51,0-6.51,0v9.39s4.59,0,6.19,1.25c0,0,3.44.32,1.6,9s-1.08,11.17-1.08,11.17a13.09,13.09,0,0,0,3.48,5.27c2.31,1.84,1.62,1.41,1.62,1.41s-5.18,3.9-5.18,8.7a61.23,61.23,0,0,0,1.67,11.62s1.47,7.57-3.9,7.8-4.29.05-4.29.05Z" transform="translate(-75.83 -88.08)"/><path class="cls-1" d="M99.3,88.16l-10.45-.08s-5.15.74-6.78,5.28A18.43,18.43,0,0,0,80.82,101L82,108.08l.57,2.74.31,3.9v1.94a6.92,6.92,0,0,1-2.18,3.55,23.59,23.59,0,0,1-3.76,2.55c-1.21.53-1,.57-1,.57l-.1,4.7s7,3.43,7,6.73a53.1,53.1,0,0,1-.23,5.35l-.92,4.75s-1.28,5.86-.91,8.49a23.25,23.25,0,0,0,.8,3.88,9.16,9.16,0,0,0,1.93,3.33,21.2,21.2,0,0,0,3,2.15s.6.57,6.3.48,6.51,0,6.51,0v-9.39s-4.58,0-6.18-1.26c0,0-3.45-.32-1.6-9s1.07-11.17,1.07-11.17a13.07,13.07,0,0,0-3.47-5.27c-2.32-1.84-1.63-1.41-1.63-1.41s5.18-3.9,5.18-8.7A61.23,61.23,0,0,0,91,105.39s-1.47-7.57,3.9-7.8,4.29-.06,4.29-.06Z" transform="translate(-75.83 -88.08)"/><path class="cls-1" d="M129.92,139.17c-1.47,1.53-3.91,2.28-7.35,2.28a9,9,0,0,1-7.79-3.71q-2.66-3.7-2.66-11v-2.94q0-7.2,2.48-10.85a8,8,0,0,1,7.11-3.65,8.47,8.47,0,0,1,5.76,1.84,9.42,9.42,0,0,1,2.7,5.81h8.91q-.83-7.49-5.28-11.41t-12.36-3.91a18.16,18.16,0,0,0-9.91,2.67,17.11,17.11,0,0,0-6.47,7.74,29.34,29.34,0,0,0-2.25,12v3.13a27.72,27.72,0,0,0,2.43,11.71,17.16,17.16,0,0,0,6.72,7.6,19.27,19.27,0,0,0,10.11,2.61,28.13,28.13,0,0,0,10-1.7,15.8,15.8,0,0,0,7-4.77V131.46h-9.16Z" transform="translate(-75.83 -88.08)"/><path class="cls-1" d="M130.19,125.12A3.09,3.09,0,1,1,127.1,122,3.09,3.09,0,0,1,130.19,125.12Z" transform="translate(-75.83 -88.08)"/><path class="cls-1" d="M137.4,125.12a3.09,3.09,0,1,1-3.09-3.09A3.09,3.09,0,0,1,137.4,125.12Z" transform="translate(-75.83 -88.08)"/><path class="cls-1" d="M123,125.12a3.09,3.09,0,1,1-3.09-3.09A3.09,3.09,0,0,1,123,125.12Z" transform="translate(-75.83 -88.08)"/><rect class="cls-1" x="54.09" y="41.25" width="9.16" height="5.91"/></svg>